<svg width="979" height="292" viewBox="0 0 979 292" fill="none" xmlns="http://www.w3.org/2000/svg">
<path fill-rule="evenodd" clip-rule="evenodd" d="M285.433 41.6585V250.315C285.436 254.934 284.53 259.507 282.764 263.775C280.999 268.042 278.409 271.92 275.144 275.187C271.878 278.453 268.001 281.045 263.733 282.813C259.466 284.581 254.891 285.491 250.272 285.491H41.6728C32.345 285.484 23.4016 281.775 16.8083 275.179C10.215 268.583 6.51135 259.64 6.51135 250.315V41.6585C6.51825 32.3384 10.225 23.4021 16.8175 16.8118C23.4101 10.2215 32.3495 6.51605 41.6728 6.50916H250.272C254.889 6.50916 259.461 7.41832 263.727 9.18474C267.993 10.9512 271.869 13.5402 275.135 16.8042C278.4 20.0681 280.99 23.9429 282.757 28.2074C284.524 32.4719 285.433 37.0426 285.433 41.6585Z" stroke="#FE5000" stroke-width="5" stroke-miterlimit="10"/>
<path fill-rule="evenodd" clip-rule="evenodd" d="M815.226 186.526H851.168L797.254 52.6979H761.181L707.215 186.526H743.158L750.528 168.3H807.829L815.226 186.526ZM760.269 143.956L779.179 97.0903L798.062 143.956H760.269ZM705.131 143.956V145.805C705.181 148.56 705.076 151.315 704.818 154.058C704.401 159.346 702.616 164.435 699.639 168.825C696.662 173.216 692.595 176.758 687.837 179.105C679.134 183.466 669.593 185.899 659.864 186.239C657.025 186.448 654.16 186.552 651.321 186.552H649.394C646.546 186.552 643.707 186.448 640.877 186.239C631.148 185.899 621.607 183.466 612.904 179.105C608.139 176.764 604.065 173.224 601.084 168.832C598.102 164.441 596.314 159.349 595.896 154.058C595.646 151.175 595.551 148.281 595.61 145.388V144.008H628.583V145.05V146.56C628.583 153.564 631.422 157.287 638.402 158.953C641.565 159.701 644.792 160.146 648.039 160.281H651.321C655.027 160.185 658.716 159.741 662.338 158.953C667.938 157.599 670.933 154.813 671.949 150.127C672.035 149.846 672.096 149.559 672.131 149.268V149.085C672.273 148.225 672.343 147.354 672.34 146.482C672.32 145.379 672.198 144.281 671.975 143.201C671.571 141.847 670.867 140.601 669.916 139.555C668.964 138.509 667.79 137.691 666.479 137.161C662.498 135.502 658.31 134.389 654.03 133.854L650.982 133.281L643.325 131.823C637.308 130.651 631.318 129.48 625.38 128.126C619.3 126.8 613.545 124.278 608.45 120.705C607.728 120.194 607.033 119.647 606.366 119.065C602.198 115.528 599.156 110.849 597.615 105.604C596.601 102.215 595.981 98.7206 595.766 95.1896V94.9032C595.766 93.7316 595.766 92.5599 595.766 91.3883C595.74 89.3109 595.827 87.2336 596.026 85.1655C596.442 79.8737 598.228 74.7813 601.211 70.3894C604.193 65.9976 608.268 62.4577 613.034 60.1184C621.737 55.7581 631.278 53.3248 641.007 52.9844C643.846 52.75 646.685 52.6719 649.55 52.6459H651.451C654.29 52.6459 657.155 52.6459 659.994 52.9844C669.723 53.3248 679.264 55.7581 687.967 60.1184C692.729 62.4612 696.798 66.0025 699.776 70.3941C702.753 74.7857 704.536 79.8764 704.949 85.1655C705.207 88.048 705.311 90.9422 705.261 93.8357V95.1896H672.183V94.2523C672.183 93.8097 672.183 93.4712 672.183 92.7682C672.183 85.7644 669.371 82.0412 662.39 80.3748C659.222 79.6122 655.985 79.1673 652.727 79.047H652.597C651.555 79.047 650.514 79.047 649.472 79.047C645.766 79.1428 642.077 79.5874 638.454 80.3748C633.245 81.5985 630.458 83.9679 629.286 87.9515C628.726 90.2436 628.726 92.6371 629.286 94.9293C629.691 96.2836 630.395 97.5297 631.346 98.5753C632.297 99.6209 633.472 100.439 634.782 100.97C638.732 102.627 642.883 103.756 647.128 104.328L649.732 104.849L657.364 106.359C663.354 107.531 669.344 108.703 675.309 110.056C681.384 111.396 687.137 113.917 692.238 117.477C692.968 117.998 693.645 118.544 694.322 119.091C698.553 122.603 701.651 127.286 703.23 132.552C704.351 136.257 704.998 140.089 705.157 143.956H705.131ZM419.724 65.8464C416.737 67.4096 414.238 69.7646 412.502 72.6534C410.765 75.5422 409.858 78.8532 409.879 82.2234V135.624C409.879 137.99 409.749 140.355 409.488 142.706C408.603 150.517 404.279 155.725 396.465 156.35H362.398V186.474H384.302H390.527C395.606 186.474 400.711 186.474 405.79 186.474C410.668 186.387 415.513 185.643 420.193 184.261C425.055 183.054 429.567 180.725 433.366 177.46C437.166 174.196 440.147 170.087 442.071 165.462C444.571 159.028 445.749 152.157 445.535 145.258V142.472C445.535 142.472 445.535 142.472 445.535 142.29V52.724L419.724 65.8464ZM580.816 125.34C580.816 146.707 575.936 162.607 566.178 173.039C556.42 183.471 541.435 188.678 521.223 188.661C502.314 188.661 487.955 183.454 478.144 173.039C468.334 162.624 463.446 147.002 463.48 126.173V52.9062H503.721V127.579C503.721 136.136 505.292 142.741 508.435 147.393C510.026 149.497 512.077 151.209 514.432 152.4C516.786 153.591 519.382 154.228 522.02 154.263C524.658 154.298 527.269 153.731 529.655 152.603C532.04 151.476 534.136 149.818 535.783 147.757C538.934 143.435 540.497 137.004 540.497 128.516V53.0104H580.816V125.34ZM942.458 128.178V52.6719H978.922V186.5H942.458C940.974 183.896 900.342 111.775 899.874 110.994V186.5H863.41V52.6979H899.874C899.874 52.6979 940.895 125.392 942.484 128.178H942.458Z" fill="#FE5000"/>
<path fill-rule="evenodd" clip-rule="evenodd" d="M207.349 49.0007L171.901 66.5494C167.839 68.5376 164.415 71.623 162.017 75.456C159.619 79.2891 158.342 83.7168 158.331 88.2378V206.626L193.779 189.077C197.839 187.087 201.261 184.001 203.659 180.168C206.057 176.336 207.335 171.909 207.349 167.389V49.0007ZM98.1917 169.602L133.692 152.053V203.762C133.683 208.28 132.41 212.706 130.017 216.539C127.623 220.372 124.205 223.459 120.148 225.45L84.6219 242.999V191.291C84.6298 186.769 85.9054 182.34 88.3039 178.506C90.7025 174.673 94.128 171.588 98.1917 169.602Z" fill="#FE5000"/>
<path d="M396.96 242.661V220.92L386.177 238.911H383.573L372.634 221.311V242.661H366.799V209.854H371.826L384.849 231.621L397.637 209.854H402.664V242.661H396.96Z" fill="#FE5000"/>
<path d="M413.916 226.258C413.749 222.724 414.645 219.222 416.489 216.202C418.332 213.183 421.038 210.784 424.258 209.316C427.477 207.848 431.063 207.378 434.552 207.966C438.042 208.554 441.275 210.174 443.835 212.616C446.395 215.059 448.164 218.212 448.915 221.668C449.666 225.125 449.363 228.728 448.047 232.011C446.73 235.295 444.46 238.109 441.529 240.091C438.597 242.072 435.139 243.131 431.601 243.129C429.316 243.246 427.031 242.896 424.885 242.1C422.74 241.304 420.78 240.079 419.125 238.5C417.47 236.92 416.154 235.02 415.258 232.915C414.363 230.811 413.906 228.545 413.916 226.258ZM443.139 226.258C443.139 223.977 442.462 221.747 441.194 219.85C439.927 217.953 438.125 216.475 436.016 215.602C433.908 214.729 431.588 214.5 429.35 214.945C427.112 215.39 425.056 216.489 423.442 218.102C421.828 219.715 420.73 221.77 420.284 224.008C419.839 226.245 420.068 228.564 420.941 230.672C421.814 232.779 423.293 234.581 425.191 235.848C427.088 237.115 429.319 237.792 431.601 237.792C433.129 237.839 434.65 237.573 436.071 237.01C437.492 236.447 438.783 235.599 439.864 234.518C440.945 233.438 441.793 232.147 442.356 230.727C442.92 229.306 443.186 227.785 443.139 226.258Z" fill="#FE5000"/>
<path d="M489.656 233.756C489.656 239.38 485.255 242.661 476.816 242.661H460.485V209.854H475.878C483.692 209.854 487.963 213.187 487.963 218.394C488.015 219.873 487.646 221.335 486.899 222.612C486.152 223.889 485.058 224.927 483.744 225.607C485.507 226.094 487.053 227.166 488.127 228.647C489.201 230.128 489.74 231.929 489.656 233.756ZM466.58 214.645V223.68H475.201C479.42 223.68 481.817 222.196 481.817 219.176C481.817 216.155 479.42 214.645 475.201 214.645H466.58ZM483.509 233.157C483.509 229.877 480.905 228.419 476.425 228.419H466.58V237.896H476.425C480.983 237.896 483.457 236.438 483.457 233.157H483.509Z" fill="#FE5000"/>
<path d="M500.804 209.854H506.898V242.661H500.804V209.854Z" fill="#FE5000"/>
<path d="M520.442 209.854H526.537V237.505H543.701V242.713H520.442V209.854Z" fill="#FE5000"/>
<path d="M577.82 237.557V242.765H553.207V209.854H577.169V215.062H559.302V223.602H575.164V228.627H559.302V237.662L577.82 237.557Z" fill="#FE5000"/>
</svg>
